<svg width="64" height="64" viewBox="0 0 64 64" fill="none" xmlns="http://www.w3.org/2000/svg">
<g clip-path="url(#clip0_18_68)">
<path d="M0.07 12.856C0.03 12.895 0 19.0805 0 26.603V40.2836L6.32 40.2531C13.7475 40.2171 14.3935 40.1476 16.575 39.1306L17.0395 38.9131L17.098 38.2701C17.368 35.3651 19.741 33.0451 22.5315 32.9621C23.1745 32.9421 23.139 32.9786 23.5865 31.8591C24.542 29.4576 24.7565 25.3865 24.0885 22.4315C22.891 17.153 19.139 13.7895 13.553 12.9815C12.7115 12.8615 0.179 12.745 0.0705 12.8565M28.6565 26.024V39.2476L28.4365 40.1026C27.3615 44.2941 22.3875 45.887 19.1005 43.0905C18.9615 42.9705 18.6465 42.6425 18.402 42.356L17.9565 41.8381L17.443 42.069C16.327 42.573 13.8205 43.286 13.1715 43.286C12.311 43.286 14.1315 46.121 15.92 47.5635C18.165 49.377 19.995 49.989 23.136 49.9865C28.9155 49.9785 32.691 47.19 34.257 41.7785C34.7755 39.9855 34.7755 39.952 34.7505 25.8095L34.725 12.85L28.6565 12.8V26.024ZM50.9705 12.867C44.409 13.207 39.928 17.292 39.928 22.935C39.928 27.4495 42.042 30.2316 47.183 32.4901C47.81 32.7661 48.8375 33.2175 49.464 33.495C50.2829 33.8599 51.1046 34.2184 51.929 34.5705C56.552 36.5425 57.5875 37.5115 57.5875 39.8755C57.5875 45.527 48.67 46.257 42.5375 41.1045C42.167 40.793 41.836 40.5695 41.7995 40.6115L39.0145 43.912C38.865 44.0905 38.6495 44.3376 38.5355 44.4571C38.227 44.7946 38.2655 44.8671 39.163 45.6306C45.398 50.9356 54.9955 51.5655 60.4625 47.0275C64.1775 43.945 65.122 38.105 62.5515 34.0975C61.5435 32.5235 59.396 30.8075 57.4965 30.056C57.3215 29.986 57.1315 29.897 57.0785 29.855C57.0235 29.8135 56.817 29.7215 56.6225 29.649C56.2414 29.5018 55.8633 29.3468 55.4885 29.184C54.7083 28.8462 53.925 28.5159 53.1385 28.193C52.8505 28.073 52.3055 27.8445 51.9285 27.683C51.5931 27.54 51.2554 27.4025 50.9155 27.2705C47.863 26.1345 46.314 24.6555 46.2005 22.7615C45.927 18.2805 52.3665 16.774 57.8605 20.038C58.036 20.1435 58.4955 20.4665 58.886 20.7595C59.273 21.052 59.6205 21.2885 59.6605 21.286C59.7245 21.28 62.0025 18.5085 62.635 17.6655L62.891 17.3255L62.451 16.933C61.6155 16.1835 60.223 15.192 59.435 14.783C58.8025 14.454 58.6215 14.365 58.2065 14.181C56.07 13.226 53.394 12.741 50.9715 12.866M11.9945 18.741C15.503 19.228 17.433 21.7625 17.5865 26.0825C17.7395 30.4775 15.7875 33.5101 12.323 34.2626C11.429 34.4576 7.2565 34.624 6.713 34.4875L6.4825 34.4291V26.598C6.4825 22.2915 6.5075 18.739 6.541 18.7055C6.641 18.6075 11.242 18.6385 11.9945 18.7405M21.705 35.335C17.962 36.845 18.8675 42.2501 22.8615 42.2341C26.716 42.2171 27.8265 37.1256 24.3405 35.4551C23.6855 35.1401 22.337 35.0785 21.705 35.335Z" fill="white" fill-opacity="0.5"/>
</g>
<defs>
<clipPath id="clip0_18_68">
<rect width="64" height="64" fill="white"/>
</clipPath>
</defs>
</svg>
