<svg width="17" height="18" viewBox="0 0 17 18" fill="none" xmlns="http://www.w3.org/2000/svg">
<g clip-path="url(#clip0_20_76)">
<path fill-rule="evenodd" clip-rule="evenodd" d="M16.72 4.79254L8.40002 -0.0625L0.0800171 4.79254V13.2073L1.3677 13.9586L4.00066 12.8937C4.35497 12.7502 4.6584 12.5042 4.87207 12.1872C5.08574 11.8703 5.19993 11.4967 5.20002 11.1145V4.5199H6.48002V11.1145C6.47993 11.7517 6.28958 12.3744 5.93338 12.9028C5.57718 13.4311 5.07133 13.8411 4.48066 14.0802L2.76546 14.774L8.40002 18.0623L16.72 13.2085V4.79254ZM7.76002 7.0799C7.76002 6.40095 8.02973 5.7498 8.50982 5.26971C8.98992 4.78961 9.64106 4.5199 10.32 4.5199H11.8138C13.1091 4.5199 14.16 5.5695 14.16 6.86614V7.0799H12.88V6.86614C12.88 6.72612 12.8524 6.58747 12.7989 6.45811C12.7453 6.32874 12.6667 6.2112 12.5677 6.11219C12.4687 6.01318 12.3512 5.93465 12.2218 5.88106C12.0924 5.82748 11.9538 5.7999 11.8138 5.7999H10.32C9.98054 5.7999 9.65497 5.93476 9.41492 6.1748C9.17487 6.41485 9.04002 6.74042 9.04002 7.0799C9.04002 7.41938 9.17487 7.74495 9.41492 7.985C9.65497 8.22504 9.98054 8.3599 10.32 8.3599H11.6C12.279 8.3599 12.9301 8.62961 13.4102 9.10971C13.8903 9.5898 14.16 10.2409 14.16 10.9199C14.16 11.5989 13.8903 12.25 13.4102 12.7301C12.9301 13.2102 12.279 13.4799 11.6 13.4799H10.32C9.64106 13.4799 8.98992 13.2102 8.50982 12.7301C8.02973 12.25 7.76002 11.5989 7.76002 10.9199H9.04002C9.04002 11.2594 9.17487 11.5849 9.41492 11.825C9.65497 12.065 9.98054 12.1999 10.32 12.1999H11.6C11.9395 12.1999 12.2651 12.065 12.5051 11.825C12.7452 11.5849 12.88 11.2594 12.88 10.9199C12.88 10.5804 12.7452 10.2548 12.5051 10.0148C12.2651 9.77476 11.9395 9.6399 11.6 9.6399H10.32C9.64106 9.6399 8.98992 9.37019 8.50982 8.89009C8.02973 8.41 7.76002 7.75885 7.76002 7.0799Z" fill="white" fill-opacity="0.5"/>
</g>
<defs>
<clipPath id="clip0_20_76">
<rect width="16.8" height="18" fill="white"/>
</clipPath>
</defs>
</svg>
